<svg width="128" height="110" viewBox="0 0 128 110" fill="none" xmlns="http://www.w3.org/2000/svg">
<path fill-rule="evenodd" clip-rule="evenodd" d="M64.2796 0.0296162C84.2785 -0.345173 105.629 2.7171 118.159 16.1128C130.732 29.554 129.127 48.0574 124.989 64.9305C120.735 82.2775 114.797 102.46 95.4632 108.656C76.9388 114.593 60.1873 99.42 42.851 91.2537C27.3997 83.9753 8.69339 79.3603 2.91211 65.0595C-3.49177 49.2187 0.976524 31.1045 13.269 18.0785C25.453 5.1673 44.937 0.392105 64.2796 0.0296162Z" fill="#FF8F44"/>
<path fill-rule="evenodd" clip-rule="evenodd" d="M63.1269 55.0002C75.9796 55.0495 83.9706 66.1908 87.8191 77.2871C91.5179 87.9516 91.2517 100.559 81.1667 107.014C71.3574 113.292 58.5715 108.711 49.0155 102.121C40.2657 96.0873 34.9044 86.7031 37.7817 77.0951C41.1739 65.7678 50.1571 54.9504 63.1269 55.0002Z" fill="#4369F1"/>
</svg>
