<?xml version="1.0" encoding="UTF-8"?>
<svg  version="1.1" viewBox="0 0 200 200" xmlns="http://www.w3.org/2000/svg" xmlns:cc="http://creativecommons.org/ns#" xmlns:dc="http://purl.org/dc/elements/1.1/" xmlns:osb="http://www.openswatchbook.org/uri/2009/osb" xmlns:rdf="http://www.w3.org/1999/02/22-rdf-syntax-ns#" xmlns:xlink="http://www.w3.org/1999/xlink">
 <defs>
  <linearGradient id="linearGradient2218">
   <stop stop-color="#ff8f44" stop-opacity=".84314" offset="0"/>
   <stop stop-color="#242cf6" stop-opacity=".89804" offset="1"/>
  </linearGradient>
  <linearGradient id="linearGradient2212" x1="56.924" x2="81.626" y1="208.01" y2="209.31" gradientUnits="userSpaceOnUse" xlink:href="#linearGradient2218"/>
  <linearGradient id="linearGradient2226" x1="-2.2154" x2="9.5058" y1="89.87" y2="90.485" gradientTransform="matrix(2.4141 0 0 3.0401 15.047 -242.47)" gradientUnits="userSpaceOnUse" xlink:href="#linearGradient2218"/>
  <linearGradient id="linearGradient2234" x1="15.875" x2="18.521" y1="87.146" y2="87.285" gradientTransform="matrix(2.4141 0 0 3.0401 15.047 -242.47)" gradientUnits="userSpaceOnUse" xlink:href="#linearGradient2218"/>
  <linearGradient id="linearGradient2242" x1="24.927" x2="36.638" y1="89.849" y2="90.463" gradientTransform="matrix(2.4141 0 0 3.0401 15.047 -242.47)" gradientUnits="userSpaceOnUse" xlink:href="#linearGradient2218"/>
  <linearGradient id="linearGradient2250" x1="50.696" x2="65.614" y1="13.61" y2="14.391" gradientTransform="matrix(2.4141 0 0 3.0401 -44.712 8.0436)" gradientUnits="userSpaceOnUse" xlink:href="#linearGradient2218"/>
  <linearGradient id="linearGradient2258" x1="-6.4606" x2="8.4573" y1="73.367" y2="74.148" gradientTransform="matrix(2.4141 0 0 3.0401 15.597 -173.11)" gradientUnits="userSpaceOnUse" xlink:href="#linearGradient2218"/>
 </defs>
 <metadata>
  <rdf:RDF>
   <cc:Work rdf:about="">
    <dc:format>image/svg+xml</dc:format>
    <dc:type rdf:resource="http://purl.org/dc/dcmitype/StillImage"/>
    <dc:title/>
   </cc:Work>
  </rdf:RDF>
 </metadata>
 <g>
  <path d="m34.996 54.454-1.0171 0.69154h-31.707l-2.2727-1.3807v-5.2823l2.2727-1.3806h15.496c16.534 0 16.989 0.0298 17.887 1.1698 0.19704 0.25032 0.35827 1.5882 0.35827 2.973 0 2.4674-0.0205 2.5317-1.0171 3.2094z" fill="url(#linearGradient2258)" style="mix-blend-mode:normal"/>
  <text transform="matrix(7.493 0 0 8.8892 -411.62 -1734.9)" fill="url(#linearGradient2212)" font-family="Grandstander" font-size="25.4px" style="font-variant-caps:normal;font-variant-east-asian:normal;font-variant-ligatures:normal;font-variant-numeric:normal;line-height:1.25;mix-blend-mode:normal;shape-inside:url(#rect1455-7-4);white-space:pre" xml:space="preserve"><tspan x="55.941406" y="217.16541"><tspan fill="url(#linearGradient2212)" font-family="Chalkboard" font-size="25.4px" style="font-variant-caps:normal;font-variant-east-asian:normal;font-variant-ligatures:normal;font-variant-numeric:normal">Br</tspan></tspan></text>
  <path d="m75.397 44.475 0.33089-1.3947 22.42-28.234 2.3823-1.0475 2.9661 3.7352-0.8318 3-10.957 13.798c-11.691 14.723-12.03 15.107-13.305 15.1-0.27989-1e-3 -1.1451-0.80398-1.9227-1.7832-1.3855-1.7447-1.407-1.8084-1.0829-3.1751z" fill="url(#linearGradient2242)" style="mix-blend-mode:normal"/>
  <path d="m53.921 44.071-0.54914-1.2808v-39.928l0.54818-1.431 0.54818-1.431h4.1947l1.0964 2.862v19.514c0 20.821-0.0237 21.395-0.92892 22.525-0.19878 0.24813-1.2612 0.45117-2.3608 0.45117-1.9594 0-2.0104-0.0258-2.5485-1.2808z" fill="url(#linearGradient2234)" style="mix-blend-mode:normal"/>
  <path d="m34.058 49.265-1.1075-0.4167-22.42-28.234-0.41589-1.5-0.4159-1.5 1.483-1.8676 1.483-1.8676 2.3823 1.0475 10.957 13.798c11.691 14.723 11.997 15.149 11.991 16.755-1e-3 0.35246-0.63843 1.442-1.416 2.4212-1.3855 1.7447-1.436 1.7719-2.5213 1.3636z" fill="url(#linearGradient2226)" style="mix-blend-mode:normal"/>
  <path d="m78.693 53.937 1.0171 0.69154h31.707l2.2727-1.3807v-5.2823l-2.2727-1.3806h-15.496c-16.534 0-16.989 0.0298-17.887 1.1698-0.19704 0.25033-0.35827 1.5882-0.35827 2.973 0 2.4674 0.0205 2.5317 1.0171 3.2094z" fill="url(#linearGradient2250)" style="mix-blend-mode:normal"/>
 </g>
</svg>
