<?xml version="1.0" encoding="UTF-8" standalone="no"?>
<svg xmlns:osb="http://www.openswatchbook.org/uri/2009/osb" xmlns:dc="http://purl.org/dc/elements/1.1/" xmlns:cc="http://creativecommons.org/ns#" xmlns:rdf="http://www.w3.org/1999/02/22-rdf-syntax-ns#" xmlns:svg="http://www.w3.org/2000/svg" xmlns="http://www.w3.org/2000/svg" xmlns:xlink="http://www.w3.org/1999/xlink" xmlns:sodipodi="http://sodipodi.sourceforge.net/DTD/sodipodi-0.dtd" xmlns:inkscape="http://www.inkscape.org/namespaces/inkscape" sodipodi:docname="brcgrad2.svg" inkscape:version="1.0 (4035a4f, 2020-05-01)" id="svg1519" version="1.1" viewBox="0 0 200 200" height="200" width="200">
  <defs id="defs1513">
    <linearGradient inkscape:collect="always" id="linearGradient2218">
      <stop style="stop-color:#ff8f44;stop-opacity:0.84313726" offset="0" id="stop2214" />
      <stop style="stop-color:#242cf6;stop-opacity:0.89803922" offset="1" id="stop2216" />
    </linearGradient>
    <linearGradient osb:paint="solid" id="linearGradient3940">
      <stop id="stop3938" offset="0" style="stop-color:#adc8e5;stop-opacity:1;" />
    </linearGradient>
    <rect x="55.940475" y="194.27975" width="96.005951" height="70.303574" id="rect1455" />
    <rect x="55.940475" y="194.27975" width="96.005951" height="70.303574" id="rect2091" />
    <rect id="rect1455-7" height="70.303574" width="96.005951" y="194.27975" x="55.940475" />
    <rect id="rect1678" height="70.303574" width="96.005951" y="194.27975" x="55.940475" />
    <rect x="55.940475" y="194.27975" width="96.005951" height="70.303574" id="rect1455-7-4" />
    <rect x="55.940475" y="194.27975" width="96.005951" height="70.303574" id="rect1771" />
    <linearGradient gradientUnits="userSpaceOnUse" y2="209.30861" x2="81.625793" y1="208.01402" x1="56.923725" id="linearGradient2212" xlink:href="#linearGradient2218" inkscape:collect="always" />
    <linearGradient gradientTransform="matrix(2.4141319,0,0,3.0401199,-330.16207,-235.8736)" gradientUnits="userSpaceOnUse" y2="90.48455" x2="9.5058222" y1="89.870262" x1="-2.2154398" id="linearGradient2226" xlink:href="#linearGradient2218" inkscape:collect="always" />
    <linearGradient gradientTransform="matrix(2.4141319,0,0,3.0401199,-330.16207,-235.8736)" gradientUnits="userSpaceOnUse" y2="87.284744" x2="18.520832" y1="87.146088" x1="15.875" id="linearGradient2234" xlink:href="#linearGradient2218" inkscape:collect="always" />
    <linearGradient gradientTransform="matrix(2.4141319,0,0,3.0401199,-330.16207,-235.8736)" gradientUnits="userSpaceOnUse" y2="90.463036" x2="36.637844" y1="89.849312" x1="24.927256" id="linearGradient2242" xlink:href="#linearGradient2218" inkscape:collect="always" />
    <linearGradient gradientTransform="matrix(2.4141319,0,0,3.0401199,-389.92129,14.63937)" gradientUnits="userSpaceOnUse" y2="14.391451" x2="65.614113" y1="13.60964" x1="50.696289" id="linearGradient2250" xlink:href="#linearGradient2218" inkscape:collect="always" />
    <linearGradient gradientTransform="matrix(2.4141319,0,0,3.0401199,-329.61292,-166.5117)" gradientUnits="userSpaceOnUse" y2="74.148308" x2="8.4572744" y1="73.366501" x1="-6.4605536" id="linearGradient2258" xlink:href="#linearGradient2218" inkscape:collect="always" />
  </defs>
  <sodipodi:namedview fit-margin-bottom="0" fit-margin-right="0" fit-margin-left="0" fit-margin-top="0" inkscape:window-maximized="0" inkscape:window-y="23" inkscape:window-x="41" inkscape:window-height="792" inkscape:window-width="1252" showgrid="true" inkscape:document-rotation="0" inkscape:current-layer="layer1" inkscape:document-units="px" inkscape:cy="191.43057" inkscape:cx="138.39559" inkscape:zoom="0.95911414" inkscape:pageshadow="2" inkscape:pageopacity="0.0" borderopacity="1.0" bordercolor="#666666" pagecolor="#ffffff" id="base" units="px" showborder="false" inkscape:lockguides="false" showguides="false">
    <inkscape:grid originy="13.937269" originx="348.6929" id="grid2113" type="xygrid" />
  </sodipodi:namedview>
  <metadata id="metadata1516">
    <rdf:RDF>
      <cc:Work rdf:about="">
        <dc:format>image/svg+xml</dc:format>
        <dc:type rdf:resource="http://purl.org/dc/dcmitype/StillImage" />
        <dc:title />
      </cc:Work>
    </rdf:RDF>
  </metadata>
  <g transform="translate(345.20955,-6.5957268)" id="layer1" inkscape:groupmode="layer" inkscape:label="Layer 1">
    <path id="path2119-3-8-3" d="m -310.21306,61.049939 -1.0171,0.691533 h -15.85334 -15.85335 l -1.13635,-0.690329 -1.13635,-0.690323 v -2.641168 -2.641171 l 1.13635,-0.690326 1.13635,-0.69033 h 15.4959 c 16.53408,0 16.98937,0.02979 17.88673,1.169787 0.19704,0.250323 0.35827,1.588168 0.35827,2.972973 0,2.467413 -0.0205,2.531659 -1.01711,3.209354 z" style="mix-blend-mode:normal;fill:url(#linearGradient2258);fill-opacity:1;stroke:none;stroke-width:0.286913" />
    <text xml:space="preserve" id="text1453-1-8" style="font-style:normal;font-variant:normal;font-weight:normal;font-stretch:normal;font-size:25.39999999999999858px;line-height:1.25;font-family:Chalkboard;-inkscape-font-specification:'Chalkboard, Normal';font-variant-ligatures:normal;font-variant-caps:normal;font-variant-numeric:normal;font-variant-east-asian:normal;white-space:pre;shape-inside:url(#rect1455-7-4);mix-blend-mode:normal;fill:url(#linearGradient2212);fill-opacity:1;" transform="matrix(7.4930345,0,0,8.8891598,-756.83445,-1728.313)">
      <tspan x="55.941406" y="217.16541">
        <tspan style="font-style:normal;font-variant:normal;font-weight:normal;font-stretch:normal;font-size:25.4px;font-family:Chalkboard;-inkscape-font-specification:'Chalkboard, Normal';font-variant-ligatures:normal;font-variant-caps:normal;font-variant-numeric:normal;font-variant-east-asian:normal;fill:url(#linearGradient2212);fill-opacity:1">Br</tspan>
      </tspan>
    </text>
    <path style="mix-blend-mode:normal;fill:url(#linearGradient2242);fill-opacity:1;stroke:none;stroke-width:0.286913" d="m -269.81275,51.070681 0.33089,-1.394682 11.21001,-14.116775 11.21001,-14.116779 1.19115,-0.523743 1.19114,-0.523739 1.48303,1.867588 1.48304,1.867591 -0.4159,1.500007 -0.4159,1.500014 -10.95725,13.79849 c -11.69136,14.722948 -12.03003,15.107298 -13.30467,15.100263 -0.27989,-0.0015 -1.14511,-0.803978 -1.92269,-1.783182 -1.38547,-1.744725 -1.40703,-1.808427 -1.08286,-3.175053 z" id="path2119-30-7-5" />
    <path id="path2119-1-3" d="m -291.28858,50.666865 -0.54914,-1.280839 V 29.42189 9.4577482 l 0.54818,-1.4310118 0.54818,-1.4310057 h 2.09733 2.09733 l 0.54818,1.4310057 0.54819,1.4310118 V 28.971758 c 0,20.821395 -0.0237,21.39474 -0.92892,22.524786 -0.19878,0.248135 -1.26115,0.451172 -2.36081,0.451172 -1.95935,0 -2.01037,-0.02584 -2.54852,-1.280851 z" style="mix-blend-mode:normal;fill:url(#linearGradient2234);fill-opacity:1;stroke:none;stroke-width:0.286913" />
    <path style="mix-blend-mode:normal;fill:url(#linearGradient2226);fill-opacity:1;stroke:none;stroke-width:0.286913" d="m -311.15112,55.861199 -1.1075,-0.4167 -11.21001,-14.116776 -11.21001,-14.116778 -0.41589,-1.500014 -0.4159,-1.50001 1.48303,-1.867588 1.48304,-1.867591 1.19115,0.523742 1.19114,0.52374 10.95726,13.798487 c 11.69136,14.722951 11.99657,15.149434 11.99098,16.754593 -0.001,0.352463 -0.63843,1.442036 -1.41601,2.421237 -1.38547,1.744728 -1.43605,1.771882 -2.52128,1.363658 z" id="path2119-4-3-5" />
    <path style="mix-blend-mode:normal;fill:url(#linearGradient2250);fill-opacity:1;stroke:none;stroke-width:0.286913" d="m -266.51665,60.532996 1.0171,0.691536 h 15.85334 15.85335 l 1.13635,-0.690329 1.13635,-0.690326 V 57.202709 54.56154 l -1.13635,-0.690329 -1.13635,-0.690329 h -15.4959 c -16.53408,0 -16.98937,0.02979 -17.88673,1.169787 -0.19704,0.250323 -0.35827,1.58817 -0.35827,2.972972 0,2.467416 0.0205,2.531663 1.01711,3.209355 z" id="path2119-0-8-4" />
  </g>
</svg>
